<svg xmlns="http://www.w3.org/2000/svg" version="1.1" xmlns:xlink="http://www.w3.org/1999/xlink" xmlns:svgjs="http://svgjs.dev/svgjs" width="1500" height="1500" viewBox="0 0 1500 1500"><g transform="matrix(1,0,0,1,-0.7499999999998863,-0.7499999999998863)"><svg viewBox="0 0 280 280" data-background-color="#ffffff" preserveAspectRatio="xMidYMid meet" height="1500" width="1500" xmlns="http://www.w3.org/2000/svg" xmlns:xlink="http://www.w3.org/1999/xlink"><g id="tight-bounds" transform="matrix(1,0,0,1,0.13999999999998636,0.13999999999998636)"><svg viewBox="0 0 279.72 279.72" height="279.72" width="279.72"><g><svg viewBox="0 0 279.72 279.72" height="279.72" width="279.72"><g><svg viewBox="0 0 279.72 279.72" height="279.72" width="279.72"><g id="textblocktransform"><svg viewBox="0 0 279.72 279.72" height="279.72" width="279.72" id="textblock"><g><svg viewBox="0 0 279.72 279.72" height="279.72" width="279.72"><g transform="matrix(1,0,0,1,57.446704652707865,57.446704652707865)"><svg viewBox="0 0 164.8265906945843 164.8265906945843" height="164.8265906945843" width="164.8265906945843"><g id="icon-0"><circle r="82" cx="82.41329534729215" cy="82.41329534729215" fill="#89939e" data-fill-palette-color="accent"></circle><svg xmlns="http://www.w3.org/2000/svg" xmlns:xlink="http://www.w3.org/1999/xlink" version="1.1" x="24.72398860418764" y="24.723988604187646" viewBox="0 20.061 100 59.87799999999999" style="enable-background:new 0 0 100 100;" xml:space="preserve" height="115.378613486209" width="115.378613486209" class="icon-jxe-0" data-fill-palette-color="quaternary" id="jxe-0"><g fill="#ffffff" data-fill-palette-color="quaternary"><path d="M0 20.061H100L49.001 55.355zM100 79.939V24.903L61.604 52.457 99.967 79.939zM0 24.903V79.939H0.204L37.187 52.457zM58.206 54.902L49.198 60.654 40.381 54.902 6.575 79.939H93.854z" fill="#ffffff" data-fill-palette-color="quaternary"></path></g></svg></g></svg></g><g id="text-0"><path d="M9.076 94.574l23.365 0.957-16.789-16.422c0.245-0.508 0.487-1.043 0.726-1.605 0.239-0.562 0.442-1.04 0.61-1.435v0c0.084-0.198 0.231-0.561 0.442-1.092 0.211-0.53 0.449-1.107 0.714-1.73 0.268-0.63 0.507-1.21 0.718-1.74 0.211-0.53 0.358-0.894 0.442-1.091v0c0.396 0.081 0.775 0.242 1.139 0.484v0l-0.031 0.074c-0.357 1.182-0.592 2.052-0.705 2.609-0.107 0.56 0.008 0.976 0.343 1.251 0.329 0.271 0.923 0.589 1.781 0.954v0l17.286 7c0.759 0.323 1.369 0.553 1.828 0.689 0.466 0.14 0.843 0.143 1.133 0.012 0.286-0.141 0.576-0.437 0.869-0.888 0.296-0.457 0.675-1.124 1.135-2v0c0.396 0.081 0.775 0.242 1.139 0.484v0c-0.084 0.198-0.244 0.556-0.479 1.076-0.238 0.526-0.49 1.1-0.755 1.724-0.265 0.624-0.515 1.195-0.751 1.715-0.238 0.526-0.398 0.884-0.479 1.075v0c-0.084 0.198-0.23 0.558-0.438 1.082-0.206 0.518-0.438 1.082-0.698 1.694-0.26 0.611-0.494 1.179-0.702 1.702-0.206 0.518-0.35 0.875-0.435 1.073v0c-0.381-0.133-0.761-0.294-1.139-0.484v0l0.032-0.074c0.336-1.133 0.552-1.967 0.648-2.502 0.099-0.541-0.018-0.944-0.35-1.209-0.336-0.274-0.929-0.592-1.781-0.955v0l-19.835-8.051 19.76 19.337c0.001 0.204-0.066 0.497-0.198 0.878-0.13 0.375-0.253 0.698-0.369 0.97v0l-26.816-1.123 18.681 8.631c0.792 0.366 1.387 0.579 1.785 0.639 0.4 0.053 0.776-0.137 1.128-0.57 0.356-0.425 0.852-1.18 1.488-2.265v0c0.431 0.067 0.811 0.228 1.139 0.484v0c-0.102 0.241-0.287 0.658-0.554 1.252-0.27 0.6-0.538 1.196-0.805 1.79-0.267 0.594-0.458 1.026-0.574 1.297v0c-0.06 0.142-0.176 0.432-0.348 0.87-0.169 0.431-0.363 0.906-0.583 1.424-0.218 0.512-0.411 0.984-0.58 1.416-0.171 0.437-0.289 0.73-0.352 0.878v0c-0.416-0.119-0.796-0.28-1.139-0.484v0c0.343-1.218 0.544-2.102 0.603-2.652 0.068-0.554-0.093-0.991-0.482-1.31-0.381-0.322-1.044-0.699-1.991-1.13v0l-16.861-8.001c-0.84-0.408-1.467-0.631-1.881-0.668-0.423-0.034-0.815 0.186-1.176 0.659-0.353 0.47-0.833 1.282-1.442 2.438v0c-0.406-0.143-0.785-0.305-1.139-0.485v0c0.354-0.833 0.73-1.683 1.128-2.549 0.4-0.872 0.83-1.849 1.289-2.929v0c0.155-0.364 0.364-0.855 0.626-1.473 0.26-0.611 0.486-1.178 0.68-1.701z" fill="#636365" data-fill-palette-color="primary"></path><path d="M64.218 59.28v0c-1.212 1.273-2.612 1.468-4.199 0.586v0c0.011 2.614-0.663 4.636-2.024 6.063v0c-0.935 0.981-2.022 1.534-3.262 1.66-1.24 0.125-2.382-0.31-3.427-1.305v0c-2.54-2.42-1.67-6.534 2.612-12.342v0c-0.466-0.444-0.935-0.9-1.407-1.368-0.472-0.468-0.977-0.959-1.516-1.472v0c-0.675-0.643-1.433-0.898-2.275-0.763-0.846 0.13-1.6 0.542-2.262 1.236v0c-0.477 0.5-0.804 0.999-0.982 1.497v0c0.442 0.421 0.806 0.948 1.092 1.583 0.276 0.634 0.413 1.269 0.409 1.904-0.003 0.645-0.234 1.209-0.692 1.69v0c-0.403 0.423-0.841 0.64-1.315 0.651-0.465 0.011-0.872-0.15-1.222-0.483v0c-0.461-0.44-0.693-1.072-0.694-1.898-0.006-0.83 0.165-1.724 0.512-2.681 0.342-0.962 0.777-1.891 1.306-2.787 0.519-0.895 1.054-1.632 1.605-2.209v0c0.68-0.714 1.438-1.252 2.274-1.614 0.841-0.357 1.697-0.482 2.568-0.376 0.866 0.112 1.676 0.526 2.428 1.244v0c0.461 0.44 1.055 1.023 1.78 1.75 0.725 0.727 1.5 1.494 2.326 2.3 0.831 0.81 1.614 1.584 2.348 2.32 0.73 0.732 1.327 1.32 1.794 1.765v0c0.617 0.588 1.182 0.612 1.696 0.072v0c0.333-0.35 0.721-0.99 1.163-1.921v0c0.171 0.015 0.329 0.063 0.473 0.145 0.139 0.077 0.267 0.152 0.383 0.226v0c0.062 0.976-0.043 1.84-0.314 2.591-0.271 0.752-0.664 1.397-1.178 1.936zM59.239 59.123v0l-4.279-4.188c-1.461 1.99-2.248 3.566-2.363 4.727-0.114 1.161 0.234 2.127 1.046 2.9v0c0.675 0.643 1.361 0.954 2.058 0.932 0.697-0.012 1.303-0.288 1.816-0.827v0c0.333-0.35 0.628-0.815 0.885-1.395 0.256-0.58 0.536-1.297 0.837-2.149z" fill="#636365" data-fill-palette-color="primary"></path><path d="M87.238 41.697v0c-0.631 0.395-1.292 0.793-1.983 1.194-0.691 0.401-1.432 0.849-2.222 1.344v0c-0.722 0.452-1.443 0.919-2.162 1.401-0.719 0.482-1.417 0.935-2.094 1.359v0c-0.296-0.321-0.515-0.671-0.657-1.049v0c0.739-0.526 1.259-0.954 1.559-1.285 0.294-0.327 0.393-0.693 0.296-1.1-0.1-0.412-0.383-0.991-0.849-1.736v0l-4.742-7.574c-0.552-0.881-0.997-1.517-1.336-1.906-0.335-0.384-0.733-0.551-1.192-0.5-0.45 0.052-1.14 0.29-2.07 0.714v0c-0.268-0.276-0.451-0.569-0.55-0.878v0c0.881-0.805 1.685-1.625 2.413-2.461 0.737-0.833 1.423-1.671 2.06-2.513v0l0.7-0.153c0.415 0.714 0.808 1.378 1.177 1.994 0.37 0.616 0.723 1.193 1.061 1.734v0l5.682 9.075c0.548 0.876 0.995 1.475 1.339 1.797 0.341 0.317 0.72 0.416 1.137 0.298 0.411-0.115 1.003-0.383 1.776-0.804v0c0.278 0.293 0.497 0.642 0.657 1.049zM66.323 23.33v0c-0.409-0.654-0.526-1.352-0.351-2.096 0.179-0.738 0.596-1.311 1.25-1.721v0c0.631-0.395 1.32-0.514 2.068-0.356 0.745 0.167 1.316 0.565 1.711 1.196v0c0.367 0.586 0.477 1.261 0.33 2.026-0.152 0.768-0.578 1.371-1.277 1.809v0c-0.631 0.395-1.312 0.509-2.043 0.34-0.73-0.168-1.293-0.568-1.688-1.198z" fill="#636365" data-fill-palette-color="primary"></path><path d="M110.813 31.782v0c-0.728 0.256-1.473 0.503-2.235 0.743-0.762 0.239-1.608 0.522-2.538 0.849v0c-0.924 0.325-1.749 0.629-2.474 0.912-0.719 0.281-1.455 0.554-2.209 0.818v0c-0.218-0.378-0.355-0.768-0.41-1.167v0c0.837-0.351 1.438-0.654 1.803-0.911 0.359-0.254 0.536-0.59 0.531-1.008-0.007-0.424-0.156-1.051-0.447-1.88v0l-6.628-18.865c-0.274-0.779-0.549-1.34-0.826-1.683-0.275-0.337-0.66-0.511-1.154-0.522-0.501-0.009-1.201 0.102-2.101 0.333v0c-0.189-0.296-0.308-0.635-0.357-1.016v0c0.956-0.478 1.915-1.035 2.879-1.673 0.966-0.631 1.915-1.38 2.847-2.248v0l0.725 0.001c0.17 0.566 0.373 1.202 0.607 1.909 0.234 0.707 0.497 1.475 0.788 2.305v0l6.935 19.738c0.342 0.975 0.643 1.658 0.902 2.051 0.263 0.384 0.611 0.564 1.043 0.54 0.426-0.022 1.063-0.153 1.909-0.393v0c0.182 0.356 0.319 0.745 0.41 1.167z" fill="#636365" data-fill-palette-color="primary"></path><path d="M134.838 0.413l8.572 21.758 8.231-21.997c0.564 0.019 1.151 0.024 1.762 0.016 0.61-0.009 1.13-0.016 1.559-0.023v0c0.215-0.003 0.607-0.015 1.177-0.037 0.57-0.022 1.194-0.037 1.872-0.046 0.684-0.01 1.311-0.025 1.881-0.047 0.57-0.022 0.962-0.034 1.177-0.037v0c0.086 0.395 0.092 0.807 0.017 1.238v0l-0.08 0.001c-1.226 0.152-2.116 0.288-2.671 0.41-0.555 0.129-0.89 0.402-1.005 0.82-0.115 0.411-0.166 1.083-0.153 2.015v0l0.587 18.64c0.012 0.825 0.048 1.475 0.109 1.951 0.061 0.482 0.21 0.829 0.447 1.04 0.244 0.205 0.632 0.35 1.164 0.436 0.538 0.086 1.301 0.163 2.288 0.23v0c0.086 0.395 0.092 0.807 0.017 1.237v0c-0.215 0.003-0.607 0.002-1.177-0.003-0.577-0.005-1.204-0.003-1.882 0.006-0.678 0.01-1.301 0.012-1.872 0.007-0.577-0.005-0.97-0.006-1.178-0.003v0c-0.215 0.003-0.604 0.015-1.167 0.036-0.557 0.021-1.167 0.037-1.831 0.046-0.664 0.009-1.278 0.025-1.841 0.047-0.557 0.021-0.942 0.034-1.156 0.036v0c-0.033-0.402-0.038-0.815-0.018-1.237v0l0.08-0.002c1.172-0.151 2.022-0.29 2.551-0.418 0.535-0.128 0.857-0.398 0.964-0.809 0.115-0.418 0.166-1.089 0.153-2.015v0l-0.656-21.397-9.696 25.892c-0.187 0.083-0.481 0.141-0.884 0.173-0.395 0.032-0.741 0.051-1.035 0.055v0l-9.816-24.98-0.341 20.576c-0.014 0.872 0.031 1.502 0.137 1.89 0.113 0.388 0.439 0.655 0.978 0.801 0.532 0.153 1.423 0.302 2.673 0.445v0c0.113 0.421 0.119 0.834 0.018 1.238v0c-0.262 0.004-0.718 0.003-1.369-0.001-0.658-0.004-1.312-0.008-1.963-0.012-0.651-0.004-1.124-0.004-1.419 0v0c-0.154 0.002-0.466 0.013-0.935 0.033-0.463 0.02-0.976 0.034-1.539 0.042-0.557 0.008-1.066 0.022-1.53 0.042-0.469 0.02-0.785 0.031-0.945 0.034v0c-0.06-0.429-0.066-0.841-0.018-1.238v0c1.252-0.179 2.142-0.352 2.67-0.521 0.534-0.162 0.869-0.485 1.003-0.97 0.141-0.478 0.217-1.238 0.229-2.278v0l0.5-18.656c0.034-0.933-0.016-1.597-0.149-1.99-0.14-0.401-0.499-0.671-1.079-0.81-0.572-0.133-1.51-0.244-2.812-0.333v0c-0.033-0.429-0.039-0.841-0.018-1.237v0c0.906-0.013 1.835-0.013 2.788 0 0.96 0.013 2.026 0.011 3.2-0.005v0c0.396-0.006 0.929-0.013 1.6-0.023 0.664-0.009 1.274-0.032 1.831-0.066z" fill="#636365" data-fill-palette-color="primary"></path><path d="M189.41 36.582v0c-1.654-0.595-2.398-1.796-2.233-3.604v0c-2.387 1.067-4.508 1.266-6.364 0.599v0c-1.275-0.459-2.221-1.23-2.836-2.314-0.616-1.084-0.679-2.305-0.191-3.662v0c1.187-3.302 5.302-4.168 12.344-2.598v0c0.218-0.606 0.446-1.219 0.683-1.84 0.237-0.62 0.482-1.281 0.734-1.981v0c0.316-0.878 0.242-1.674-0.221-2.39-0.461-0.722-1.142-1.245-2.045-1.569v0c-0.65-0.234-1.239-0.331-1.766-0.293v0c-0.207 0.574-0.542 1.121-1.006 1.638-0.468 0.509-0.994 0.89-1.577 1.144-0.592 0.258-1.2 0.274-1.825 0.05v0c-0.549-0.197-0.925-0.511-1.128-0.94-0.198-0.421-0.215-0.858-0.052-1.313v0c0.216-0.6 0.701-1.067 1.456-1.401 0.757-0.341 1.644-0.546 2.66-0.616 1.018-0.076 2.044-0.053 3.076 0.069 1.029 0.113 1.919 0.305 2.67 0.575v0c0.928 0.334 1.726 0.81 2.395 1.428 0.667 0.625 1.127 1.357 1.381 2.196 0.248 0.838 0.196 1.746-0.156 2.725v0c-0.216 0.6-0.51 1.378-0.882 2.335-0.373 0.957-0.76 1.976-1.163 3.057-0.405 1.088-0.796 2.116-1.174 3.085-0.375 0.963-0.671 1.748-0.889 2.354v0c-0.288 0.802-0.082 1.329 0.619 1.581v0c0.455 0.163 1.197 0.259 2.227 0.287v0c0.056 0.163 0.075 0.326 0.059 0.492-0.014 0.159-0.032 0.306-0.052 0.441v0c-0.868 0.451-1.7 0.704-2.497 0.76-0.797 0.056-1.546-0.043-2.247-0.295zM187.541 31.964v0l2.102-5.607c-2.411-0.532-4.17-0.615-5.278-0.251-1.108 0.365-1.851 1.074-2.23 2.129v0c-0.316 0.878-0.323 1.631-0.021 2.259 0.293 0.633 0.79 1.075 1.49 1.327v0c0.455 0.163 0.999 0.245 1.634 0.246 0.634 0 1.402-0.034 2.303-0.103z" fill="#636365" data-fill-palette-color="primary"></path><path d="M227.599 41.672l-14.04 8.272-2.031-0.94 4.213-16.278c0.172-0.598 0.25-1.09 0.234-1.476-0.007-0.388-0.12-0.762-0.338-1.121-0.213-0.356-0.596-0.787-1.149-1.292v0c0.175-0.329 0.427-0.673 0.756-1.031v0c0.622 0.456 1.263 0.943 1.923 1.461 0.66 0.518 1.323 1.02 1.989 1.509v0c0.622 0.456 1.306 0.941 2.052 1.455 0.741 0.51 1.36 0.948 1.858 1.312v0c-0.189 0.394-0.441 0.737-0.756 1.031v0c-0.762-0.492-1.318-0.784-1.668-0.874-0.344-0.086-0.642 0.041-0.891 0.382v0c-0.127 0.173-0.25 0.415-0.371 0.727-0.111 0.31-0.197 0.575-0.259 0.795v0c-0.062 0.221-0.184 0.659-0.366 1.317-0.182 0.657-0.389 1.42-0.62 2.291-0.225 0.875-0.464 1.773-0.715 2.694-0.246 0.926-0.465 1.78-0.657 2.564-0.197 0.779-0.355 1.408-0.473 1.887v0c1.207-0.704 2.66-1.551 4.36-2.543 1.704-0.996 3.408-2.026 5.112-3.09v0c0.33-0.224 0.623-0.429 0.877-0.617 0.258-0.193 0.443-0.366 0.554-0.517v0c0.218-0.298 0.237-0.612 0.056-0.945-0.186-0.336-0.621-0.804-1.303-1.405v0c0.228-0.357 0.48-0.7 0.756-1.031v0c0.557 0.409 1.079 0.808 1.566 1.199 0.493 0.395 1.093 0.852 1.802 1.372v0c0.319 0.234 0.629 0.453 0.929 0.656 0.295 0.199 0.848 0.58 1.659 1.142v0c-0.227 0.4-0.478 0.743-0.756 1.03v0c-0.951-0.598-1.709-0.846-2.274-0.744-0.567 0.092-1.243 0.362-2.029 0.808z" fill="#636365" data-fill-palette-color="primary"></path><path d="M236.084 72.544v0c-1.187-1.473-1.848-2.992-1.981-4.557-0.137-1.57 0.156-3.082 0.881-4.536 0.729-1.458 1.785-2.745 3.169-3.861v0c1.431-1.154 2.979-1.949 4.643-2.386 1.664-0.437 3.3-0.433 4.908 0.012 1.612 0.45 3.027 1.429 4.243 2.938v0c1.474 1.828 2.08 3.692 1.82 5.591-0.266 1.904-1.258 3.548-2.977 4.934v0c-0.209 0.168-0.393 0.308-0.553 0.42-0.165 0.116-0.308 0.205-0.43 0.269v0l-7.795-9.861c-0.084 0.067-0.157 0.126-0.219 0.177v0c-2.032 1.638-3.252 3.389-3.662 5.254-0.406 1.87 0.067 3.643 1.419 5.319v0c1.137 1.41 2.714 2.431 4.731 3.062v0c-0.086 0.406-0.202 0.754-0.348 1.044v0c-3.346-0.206-5.962-1.479-7.849-3.819zM243.233 60.665v0l5.317 6.338c0.059-0.013 0.124-0.049 0.198-0.107 0.068-0.055 0.112-0.091 0.133-0.108v0c1.123-0.905 1.859-1.9 2.21-2.983 0.351-1.093 0.143-2.115-0.623-3.065v0c-0.72-0.893-1.71-1.379-2.972-1.457-1.256-0.082-2.677 0.378-4.263 1.382z" fill="#636365" data-fill-palette-color="primary"></path><path d="M253.709 103.829v0c0.38-0.206 0.765-0.357 1.153-0.451v0c0.35 0.749 0.655 1.289 0.914 1.62 0.257 0.325 0.594 0.477 1.012 0.458 0.424-0.022 1.045-0.192 1.863-0.512v0l7.507-2.935c1.487-0.581 2.506-1.246 3.056-1.995 0.553-0.742 0.563-1.794 0.03-3.156v0c-0.281-0.719-0.681-1.365-1.201-1.939-0.524-0.566-1.3-1.105-2.329-1.618v0l-9.709 3.796c-0.962 0.376-1.634 0.704-2.015 0.982-0.375 0.276-0.545 0.624-0.511 1.042 0.032 0.413 0.178 1.025 0.438 1.839v0c-0.349 0.194-0.733 0.344-1.153 0.451v0c-0.271-0.694-0.542-1.423-0.812-2.189-0.271-0.766-0.576-1.583-0.916-2.452v0c-0.31-0.794-0.628-1.57-0.953-2.328-0.325-0.759-0.634-1.51-0.924-2.254v0c0.371-0.231 0.755-0.382 1.152-0.45v0c0.38 0.824 0.704 1.414 0.973 1.769 0.266 0.35 0.608 0.515 1.026 0.496 0.424-0.022 1.045-0.192 1.863-0.512v0l8.323-3.254c0.968-0.379 1.673-0.705 2.114-0.978 0.434-0.271 0.67-0.636 0.705-1.097 0.032-0.452-0.069-1.162-0.303-2.129v0c0.321-0.212 0.642-0.338 0.966-0.377v0c1.258 1.965 2.595 3.7 4.012 5.206v0l0.021 0.716-2.784 1.088c1.484 0.738 2.653 1.571 3.505 2.498 0.844 0.924 1.46 1.882 1.848 2.875v0c0.64 1.637 0.646 3.079 0.017 4.326-0.625 1.238-1.844 2.212-3.656 2.921v0l-8.444 3.301c-0.962 0.376-1.634 0.704-2.015 0.982-0.375 0.276-0.545 0.624-0.511 1.043 0.032 0.413 0.182 1.038 0.453 1.876v0c-0.349 0.194-0.733 0.344-1.153 0.45v0c-0.291-0.744-0.562-1.473-0.813-2.189-0.251-0.716-0.561-1.545-0.929-2.488v0c-0.359-0.918-0.684-1.713-0.976-2.385-0.291-0.671-0.572-1.354-0.843-2.047z" fill="#636365" data-fill-palette-color="primary"></path><path d="M14.117 144.816c0-1.908 1.547-3.455 3.455-3.455 1.908 0 3.455 1.547 3.455 3.455 0 1.908-1.547 3.455-3.455 3.455-1.908 0-3.455-1.547-3.455-3.455z" fill="#636365" data-fill-palette-color="primary"></path><path d="M267.456 144.816c0-1.908 1.547-3.455 3.456-3.455 1.908 0 3.455 1.547 3.455 3.455 0 1.908-1.547 3.455-3.455 3.455-1.908 0-3.455-1.547-3.456-3.455z" fill="#636365" data-fill-palette-color="primary"></path></g><g id="text-1"><path d="M31.249 185.76v0l-6.072-1.225-3.41 1.099c-0.409 0.132-0.724 0.247-0.945 0.347-0.226 0.108-0.375 0.237-0.446 0.387-0.065 0.148-0.078 0.36-0.039 0.636 0.04 0.276 0.115 0.664 0.227 1.164v0c-0.192 0.104-0.399 0.171-0.622 0.201v0c-0.088-0.275-0.19-0.601-0.305-0.98-0.117-0.385-0.232-0.764-0.346-1.136-0.113-0.372-0.21-0.683-0.289-0.933v0c-0.08-0.249-0.183-0.558-0.309-0.926-0.124-0.362-0.249-0.73-0.378-1.104-0.13-0.381-0.239-0.709-0.327-0.984v0c0.19-0.089 0.397-0.156 0.622-0.2v0c0.274 0.61 0.484 1.042 0.63 1.298 0.146 0.256 0.331 0.383 0.557 0.381 0.225-0.002 0.564-0.076 1.017-0.222v0l3.477-1.121 4.489-4.735c0.371-0.38 0.658-0.691 0.862-0.934 0.2-0.234 0.339-0.447 0.417-0.642 0.074-0.186 0.105-0.397 0.093-0.632-0.019-0.234-0.07-0.545-0.153-0.934v0c0.202-0.093 0.41-0.16 0.622-0.201v0c0.152 0.472 0.301 0.957 0.447 1.453 0.148 0.502 0.3 0.996 0.456 1.481v0c0.134 0.415 0.289 0.876 0.467 1.383 0.177 0.507 0.342 0.996 0.495 1.468v0c-0.183 0.087-0.391 0.154-0.623 0.201v0c-0.232-0.545-0.425-0.924-0.577-1.135-0.146-0.214-0.312-0.291-0.498-0.231v0c-0.089 0.029-0.196 0.102-0.32 0.219-0.129 0.126-0.286 0.283-0.472 0.47v0l-3.972 4.113 5.616 1.055c0.508 0.09 0.839 0.11 0.993 0.061v0c0.198-0.064 0.29-0.238 0.275-0.522-0.01-0.293-0.082-0.78-0.217-1.463v0c0.215-0.098 0.423-0.164 0.622-0.201v0c0.068 0.211 0.151 0.48 0.25 0.808 0.099 0.328 0.196 0.652 0.293 0.973 0.099 0.328 0.181 0.594 0.246 0.798v0c0.136 0.421 0.268 0.809 0.396 1.163 0.13 0.36 0.26 0.741 0.39 1.143v0c-0.196 0.091-0.404 0.158-0.623 0.201v0c-0.16-0.364-0.303-0.656-0.43-0.877-0.134-0.218-0.295-0.391-0.485-0.52-0.194-0.121-0.455-0.23-0.783-0.329-0.328-0.099-0.767-0.204-1.318-0.316z" fill="#636365" data-fill-palette-color="primary"></path><path d="M22.644 196.315v0c-0.38-0.925-0.511-1.817-0.393-2.678 0.114-0.852 0.446-1.616 0.996-2.291 0.552-0.669 1.284-1.191 2.196-1.566v0c0.993-0.408 1.94-0.565 2.841-0.471 0.898 0.103 1.701 0.433 2.409 0.99 0.699 0.554 1.242 1.303 1.63 2.246v0c0.38 0.925 0.51 1.814 0.389 2.669-0.129 0.851-0.468 1.614-1.018 2.289-0.558 0.672-1.287 1.192-2.186 1.562v0c-0.931 0.382-1.85 0.528-2.758 0.437-0.904-0.1-1.716-0.416-2.435-0.947-0.721-0.538-1.278-1.284-1.671-2.24zM26.559 191.835v0c-1.297 0.533-2.236 1.169-2.817 1.908-0.584 0.733-0.7 1.528-0.348 2.384v0c0.334 0.813 0.949 1.286 1.844 1.418 0.898 0.139 1.949-0.039 3.154-0.534v0c1.285-0.528 2.219-1.166 2.804-1.914 0.587-0.742 0.712-1.525 0.372-2.35v0c-0.334-0.813-0.942-1.296-1.824-1.449-0.882-0.153-1.944 0.026-3.185 0.537z" fill="#636365" data-fill-palette-color="primary"></path><path d="M28.002 207.561v0c-0.426-0.784-0.523-1.518-0.292-2.201 0.232-0.683 0.79-1.265 1.674-1.746v0l3.652-1.984c0.472-0.256 0.811-0.468 1.019-0.634 0.207-0.166 0.307-0.369 0.298-0.609-0.002-0.243-0.094-0.602-0.275-1.076v0c0.118-0.148 0.268-0.23 0.451-0.245v0c0.353 0.48 0.703 0.935 1.051 1.365 0.342 0.433 0.702 0.856 1.079 1.269v0l0.025 0.341c-0.378 0.19-0.736 0.373-1.075 0.55-0.333 0.173-0.644 0.339-0.934 0.496v0l-3.66 1.989c-0.725 0.394-1.204 0.799-1.436 1.215-0.232 0.416-0.172 0.948 0.181 1.597v0c0.199 0.365 0.464 0.664 0.796 0.896 0.338 0.229 0.742 0.402 1.211 0.522v0l4.2-2.283c0.472-0.256 0.811-0.468 1.019-0.634 0.207-0.166 0.307-0.369 0.299-0.609 0.001-0.237-0.091-0.596-0.276-1.075v0c0.134-0.119 0.284-0.2 0.451-0.246v0c0.353 0.48 0.703 0.935 1.051 1.365 0.342 0.433 0.706 0.864 1.093 1.296v0l0.021 0.332c-0.378 0.19-0.736 0.373-1.076 0.55-0.333 0.173-0.644 0.339-0.933 0.496v0l-4.686 2.547c-0.365 0.199-0.628 0.368-0.789 0.508-0.151 0.143-0.215 0.335-0.192 0.574 0.032 0.242 0.15 0.606 0.353 1.091v0c-0.141 0.092-0.291 0.174-0.451 0.245v0c-0.329-0.493-0.66-0.955-0.993-1.384-0.327-0.433-0.665-0.845-1.015-1.235v0l-0.03-0.35 1.245-0.723c-1.499-0.483-2.518-1.22-3.056-2.21z" fill="#636365" data-fill-palette-color="primary"></path><path d="M32.949 215.827v0c0.162-0.156 0.337-0.274 0.527-0.352v0c0.289 0.372 0.52 0.633 0.693 0.784 0.169 0.145 0.361 0.19 0.575 0.136 0.205-0.056 0.497-0.211 0.876-0.465v0l3.84-2.566c0.441-0.294 0.757-0.534 0.948-0.719 0.191-0.184 0.272-0.396 0.242-0.634-0.036-0.234-0.167-0.582-0.394-1.043v0c0.139-0.142 0.287-0.24 0.443-0.296v0c0.401 0.394 0.805 0.769 1.213 1.126 0.413 0.353 0.878 0.704 1.394 1.053v0l0.087 0.366-1.506 1.006c1.548 0.119 2.6 0.594 3.155 1.426v0c0.268 0.402 0.365 0.769 0.289 1.102-0.081 0.337-0.253 0.593-0.516 0.768v0c-0.312 0.209-0.618 0.264-0.918 0.166-0.305-0.095-0.545-0.273-0.72-0.535v0c-0.145-0.218-0.233-0.47-0.264-0.757-0.025-0.29 0.05-0.566 0.223-0.826v0c-0.261-0.39-0.643-0.636-1.145-0.735-0.508-0.096-0.96-0.012-1.357 0.252v0l-3.689 2.466c-0.441 0.294-0.742 0.532-0.904 0.713-0.162 0.181-0.193 0.399-0.094 0.656 0.099 0.257 0.302 0.645 0.61 1.166v0c-0.141 0.127-0.317 0.244-0.527 0.352v0c-0.261-0.39-0.522-0.793-0.783-1.207-0.265-0.42-0.542-0.848-0.833-1.283v0c-0.283-0.424-0.539-0.794-0.766-1.11-0.227-0.316-0.46-0.653-0.699-1.01z" fill="#636365" data-fill-palette-color="primary"></path><path d="M57.929 235.144v0c-1.098 0.997-2.272 1.655-3.522 1.975-1.25 0.32-2.486 0.291-3.707-0.087-1.226-0.373-2.342-1.113-3.348-2.22v0c-0.997-1.098-1.618-2.251-1.864-3.46-0.241-1.213-0.14-2.405 0.301-3.576 0.436-1.166 1.178-2.225 2.226-3.176v0c1.088-0.988 2.259-1.643 3.515-1.968 1.26-0.319 2.503-0.292 3.729 0.08 1.226 0.382 2.337 1.122 3.334 2.22v0c0.988 1.088 1.604 2.236 1.849 3.445 0.241 1.213 0.148 2.403-0.279 3.569-0.432 1.171-1.177 2.237-2.234 3.198zM56.054 233.394v0c0.621-0.564 1.17-1.176 1.649-1.837 0.483-0.656 0.841-1.334 1.074-2.035 0.229-0.706 0.286-1.406 0.173-2.101-0.119-0.69-0.464-1.35-1.037-1.98v0c-0.582-0.641-1.215-1.054-1.9-1.239-0.689-0.18-1.389-0.193-2.099-0.037-0.71 0.156-1.415 0.433-2.114 0.831-0.698 0.398-1.346 0.868-1.941 1.41v0c-0.591 0.537-1.121 1.136-1.59 1.796-0.469 0.661-0.818 1.345-1.046 2.051-0.229 0.706-0.282 1.416-0.16 2.13 0.117 0.718 0.467 1.397 1.048 2.038v0c0.573 0.631 1.192 1.038 1.858 1.222 0.67 0.18 1.358 0.194 2.064 0.043 0.701-0.156 1.394-0.441 2.078-0.854 0.689-0.408 1.337-0.888 1.943-1.438z" fill="#636365" data-fill-palette-color="primary"></path><path d="M60.019 246.578v0c0.123-0.186 0.26-0.347 0.411-0.483v0c0.349 0.252 0.62 0.421 0.812 0.505 0.198 0.089 0.389 0.075 0.575-0.039 0.187-0.106 0.428-0.332 0.723-0.68v0l2.698-3.175c0.53-0.624 0.83-1.174 0.901-1.651 0.066-0.472-0.189-0.953-0.767-1.444v0c-0.302-0.256-0.639-0.45-1.011-0.582-0.382-0.131-0.867-0.187-1.455-0.167v0l-3.487 4.102c-0.343 0.404-0.568 0.715-0.674 0.933-0.106 0.218-0.099 0.417 0.02 0.598 0.119 0.181 0.334 0.425 0.645 0.733v0c-0.11 0.171-0.247 0.332-0.41 0.483v0c-0.291-0.248-0.594-0.513-0.908-0.797-0.308-0.28-0.646-0.576-1.014-0.889v0c-0.332-0.282-0.666-0.557-1.002-0.825-0.331-0.263-0.655-0.53-0.972-0.799v0c0.113-0.195 0.25-0.356 0.411-0.483v0c0.38 0.279 0.673 0.467 0.881 0.563 0.203 0.093 0.399 0.084 0.59-0.026 0.181-0.11 0.42-0.339 0.716-0.686v0l2.991-3.52c0.343-0.404 0.582-0.721 0.715-0.95 0.134-0.23 0.153-0.455 0.059-0.676-0.098-0.216-0.32-0.514-0.665-0.896v0c0.095-0.174 0.21-0.31 0.346-0.406v0c1.052 0.586 2.086 1.047 3.103 1.383v0l0.184 0.328-0.997 1.173c0.854-0.031 1.587 0.059 2.199 0.271 0.608 0.217 1.121 0.504 1.541 0.86v0c0.69 0.587 1.048 1.238 1.072 1.955 0.015 0.717-0.303 1.46-0.954 2.226v0l-3.031 3.566c-0.343 0.404-0.565 0.717-0.666 0.939-0.106 0.218-0.099 0.417 0.02 0.598 0.114 0.176 0.334 0.425 0.66 0.746v0c-0.11 0.171-0.247 0.332-0.41 0.483v0c-0.317-0.269-0.619-0.535-0.907-0.797-0.288-0.262-0.631-0.563-1.03-0.902v0c-0.389-0.33-0.73-0.612-1.025-0.844-0.295-0.233-0.591-0.476-0.888-0.728z" fill="#636365" data-fill-palette-color="primary"></path><path d="M69.817 254.349v0c-0.799-0.555-1.343-1.212-1.633-1.97-0.296-0.761-0.37-1.553-0.224-2.374 0.15-0.827 0.488-1.618 1.013-2.373v0c0.54-0.777 1.191-1.395 1.951-1.854 0.761-0.46 1.574-0.695 2.44-0.705 0.856-0.009 1.697 0.274 2.524 0.848v0c0.991 0.69 1.56 1.522 1.706 2.499 0.148 0.986-0.104 1.946-0.755 2.882v0c-0.077 0.11-0.146 0.205-0.209 0.284-0.067 0.084-0.125 0.15-0.174 0.197v0l-5.294-3.756c-0.031 0.044-0.057 0.083-0.081 0.116v0c-0.77 1.107-1.12 2.151-1.05 3.131 0.066 0.986 0.556 1.797 1.471 2.432v0c0.766 0.532 1.692 0.809 2.78 0.831v0c0.02 0.218 0.015 0.407-0.014 0.567v0c-1.69 0.385-3.174 0.134-4.451-0.755zM71.648 247.434v0l3.549 2.37c0.026-0.014 0.053-0.041 0.079-0.079 0.031-0.044 0.05-0.072 0.058-0.083v0c0.421-0.606 0.639-1.206 0.652-1.801 0.019-0.591-0.23-1.067-0.747-1.428v0c-0.485-0.337-1.044-0.432-1.678-0.284-0.639 0.144-1.277 0.579-1.913 1.305z" fill="#636365" data-fill-palette-color="primary"></path><path d="M85.288 263.481v0c-0.012-0.006-0.205-0.115-0.579-0.327-0.38-0.215-0.799-0.494-1.257-0.838v0c-0.377-0.281-0.728-0.522-1.054-0.725-0.32-0.2-0.516-0.317-0.588-0.354v0c0.503-1.024 1.07-2.286 1.701-3.786v0c0.108 0.04 0.213 0.085 0.315 0.137 0.102 0.051 0.198 0.1 0.287 0.145v0c-0.312 1.196-0.345 2.228-0.1 3.096 0.248 0.862 0.818 1.519 1.71 1.97v0c0.796 0.403 1.556 0.513 2.28 0.33 0.724-0.183 1.265-0.627 1.622-1.334v0c0.273-0.539 0.359-1.051 0.259-1.537-0.103-0.481-0.315-0.953-0.637-1.417-0.328-0.467-0.69-0.932-1.087-1.395v0c-0.456-0.554-0.881-1.111-1.275-1.671-0.387-0.557-0.637-1.149-0.748-1.777-0.111-0.628 0.015-1.301 0.379-2.019v0c0.391-0.772 0.917-1.337 1.578-1.694 0.671-0.36 1.402-0.52 2.194-0.48 0.798 0.043 1.589 0.262 2.373 0.659v0c0.245 0.124 0.494 0.265 0.745 0.422 0.251 0.157 0.504 0.334 0.759 0.53v0c0.329 0.227 0.586 0.394 0.771 0.503 0.186 0.109 0.308 0.178 0.368 0.209v0c0.036 0.018 0.106 0.05 0.211 0.096 0.099 0.042 0.181 0.073 0.248 0.091v0c-0.249 0.551-0.506 1.12-0.773 1.706-0.267 0.587-0.532 1.208-0.797 1.864v0c-0.264-0.088-0.473-0.179-0.629-0.273v0c0.258-1.208 0.295-2.151 0.113-2.83v0c-0.171-0.688-0.642-1.227-1.415-1.618v0c-0.676-0.342-1.345-0.455-2.006-0.338-0.664 0.123-1.176 0.541-1.535 1.253v0c-0.191 0.377-0.271 0.758-0.24 1.142 0.031 0.384 0.185 0.815 0.462 1.294 0.283 0.481 0.714 1.064 1.293 1.748v0c0.316 0.37 0.628 0.765 0.935 1.183 0.307 0.418 0.559 0.858 0.754 1.318 0.196 0.46 0.294 0.949 0.295 1.468 0.004 0.513-0.138 1.054-0.426 1.623v0c-0.421 0.832-0.988 1.433-1.701 1.801-0.707 0.372-1.479 0.538-2.315 0.498-0.84-0.034-1.67-0.258-2.49-0.673z" fill="#636365" data-fill-palette-color="primary"></path><path d="M96.472 268.443v0c-0.76-0.303-1.292-0.727-1.594-1.274-0.305-0.54-0.32-1.156-0.044-1.848v0c0.447-1.122 0.888-2.203 1.323-3.242 0.436-1.04 0.852-2.04 1.249-3.001v0l-1.449-0.577c0.04-0.208 0.109-0.383 0.209-0.524v0c1.479-0.032 2.777-0.527 3.893-1.482v0c0.1 0.04 0.201 0.084 0.305 0.132 0.097 0.046 0.181 0.09 0.251 0.132v0c-0.144 0.325-0.294 0.674-0.449 1.045-0.153 0.365-0.316 0.748-0.49 1.148v0l2.908 1.158c-0.071 0.304-0.188 0.6-0.353 0.888v0l-2.908-1.157c-0.38 0.881-0.77 1.816-1.171 2.805-0.398 0.982-0.796 1.972-1.193 2.969v0c-0.412 1.035-0.082 1.765 0.99 2.192v0c0.461 0.184 0.937 0.232 1.426 0.145v0c0.056 0.203 0.052 0.422-0.012 0.656v0c-0.98 0.267-1.944 0.212-2.891-0.165z" fill="#636365" data-fill-palette-color="primary"></path><path d="M106.147 271.72v0c-0.955-0.294-1.728-0.76-2.318-1.398-0.585-0.63-0.964-1.371-1.136-2.224-0.166-0.851-0.104-1.748 0.186-2.691v0c0.316-1.026 0.797-1.857 1.442-2.493 0.65-0.628 1.415-1.038 2.295-1.231 0.872-0.188 1.795-0.131 2.77 0.169v0c0.955 0.294 1.725 0.759 2.308 1.395 0.575 0.64 0.949 1.387 1.121 2.241 0.164 0.858 0.103 1.752-0.183 2.681v0c-0.296 0.962-0.768 1.764-1.416 2.407-0.652 0.635-1.411 1.061-2.278 1.278-0.874 0.215-1.804 0.171-2.791-0.134zM105.175 265.851v0c-0.413 1.34-0.518 2.469-0.317 3.388 0.195 0.916 0.735 1.511 1.62 1.783v0c0.84 0.259 1.596 0.084 2.267-0.523 0.678-0.605 1.208-1.53 1.591-2.774v0c0.409-1.327 0.51-2.454 0.304-3.381-0.2-0.925-0.726-1.519-1.578-1.781v0c-0.84-0.259-1.599-0.096-2.277 0.488-0.678 0.584-1.215 1.518-1.61 2.8z" fill="#636365" data-fill-palette-color="primary"></path><path d="M113.113 278.651v0c0.029-0.22 0.07-0.431 0.123-0.632v0c0.479 0.066 0.831 0.087 1.054 0.062 0.23-0.023 0.394-0.128 0.492-0.314 0.104-0.185 0.198-0.491 0.282-0.92v0l1.856-9.511c0.101-0.52 0.151-0.914 0.148-1.181 0.004-0.266-0.089-0.472-0.279-0.618-0.185-0.139-0.521-0.29-1.009-0.453v0c0.011-0.196 0.045-0.371 0.102-0.524v0c0.575-0.004 1.14-0.027 1.695-0.069 0.556-0.049 1.139-0.126 1.748-0.233v0l0.247 0.202c-0.079 0.333-0.141 0.618-0.187 0.855-0.046 0.237-0.09 0.461-0.131 0.672v0c0.635-0.45 1.233-0.751 1.795-0.901 0.561-0.143 1.131-0.159 1.711-0.045v0c0.849 0.166 1.524 0.526 2.024 1.082 0.499 0.562 0.833 1.229 1.005 2 0.169 0.778 0.173 1.585 0.009 2.421v0c-0.191 0.981-0.579 1.845-1.162 2.593-0.59 0.746-1.312 1.296-2.167 1.649-0.848 0.354-1.773 0.433-2.774 0.238v0c-0.388-0.076-0.751-0.181-1.087-0.315-0.344-0.129-0.66-0.276-0.949-0.441v0l-0.532 2.726c-0.103 0.527-0.134 0.914-0.093 1.16 0.034 0.246 0.18 0.425 0.439 0.537 0.258 0.112 0.675 0.238 1.249 0.377v0c-0.029 0.22-0.072 0.437-0.127 0.652v0c-0.461-0.09-0.921-0.186-1.379-0.289-0.465-0.104-0.974-0.21-1.527-0.319v0c-0.527-0.103-0.979-0.184-1.357-0.244-0.384-0.061-0.791-0.134-1.219-0.217zM119.084 266.856l-1.121 5.748c0.416 0.949 1.105 1.518 2.066 1.706v0c0.672 0.131 1.242 0.044 1.712-0.261 0.475-0.297 0.864-0.73 1.166-1.3 0.296-0.571 0.51-1.196 0.643-1.874v0c0.131-0.672 0.174-1.347 0.128-2.026-0.052-0.68-0.234-1.272-0.545-1.777-0.319-0.5-0.822-0.816-1.506-0.95v0c-0.823-0.161-1.671 0.084-2.543 0.734z" fill="#636365" data-fill-palette-color="primary"></path><path d="M139.333 262.376l4.161 11.33 4.512-11.249c0.288 0.016 0.59 0.026 0.906 0.028 0.315 0.003 0.584 0.005 0.805 0.008v0c0.107 0.001 0.312 0 0.614-0.005 0.295-0.004 0.617-0.004 0.966-0.001 0.349 0.003 0.671 0.003 0.966-0.001 0.295-0.004 0.497-0.005 0.604-0.004v0c0.045 0.202 0.043 0.413-0.006 0.634v0l-0.04-0.001c-0.631 0.061-1.091 0.124-1.381 0.189-0.289 0.058-0.465 0.19-0.527 0.397-0.062 0.214-0.096 0.563-0.1 1.046v0l0.072 9.621c-0.004 0.429 0.006 0.765 0.031 1.007 0.025 0.248 0.1 0.43 0.226 0.546 0.12 0.108 0.317 0.187 0.592 0.236 0.275 0.05 0.667 0.1 1.176 0.152v0c0.038 0.202 0.036 0.413-0.006 0.634v0c-0.114-0.001-0.319-0.006-0.614-0.016-0.295-0.009-0.617-0.016-0.966-0.019-0.349-0.003-0.671-0.01-0.966-0.019-0.295-0.009-0.5-0.015-0.614-0.015v0c-0.107-0.001-0.305 0.001-0.593 0.004-0.289 0.004-0.604 0.004-0.946 0.001-0.342-0.003-0.657-0.003-0.946 0.002-0.289 0.004-0.49 0.006-0.604 0.004v0c-0.011-0.208-0.01-0.419 0.006-0.634v0l0.04 0.001c0.611-0.068 1.051-0.131 1.32-0.189 0.276-0.058 0.448-0.194 0.517-0.408 0.062-0.214 0.096-0.559 0.1-1.036v0l-0.088-11.05-5.316 13.244c-0.094 0.039-0.245 0.065-0.454 0.076-0.201 0.012-0.379 0.017-0.533 0.016v0l-4.76-13.006-0.431 10.613c-0.018 0.449 0 0.775 0.051 0.976 0.052 0.202 0.215 0.344 0.49 0.427 0.274 0.083 0.736 0.171 1.386 0.265v0c0.052 0.215 0.05 0.426-0.006 0.634v0c-0.141-0.001-0.379-0.007-0.714-0.017-0.335-0.01-0.671-0.02-1.006-0.029-0.342-0.01-0.587-0.016-0.735-0.017v0c-0.081-0.001-0.242 0.001-0.483 0.005-0.242 0.004-0.507 0.005-0.795 0.003-0.288-0.003-0.553-0.002-0.795 0.003-0.242 0.004-0.403 0.006-0.483 0.005v0c-0.025-0.222-0.023-0.433 0.006-0.634v0c0.645-0.081 1.105-0.161 1.381-0.238 0.276-0.078 0.452-0.241 0.527-0.489 0.083-0.247 0.133-0.639 0.152-1.176v0l0.482-9.616c0.031-0.483 0.011-0.825-0.061-1.027-0.065-0.209-0.245-0.351-0.539-0.428-0.294-0.083-0.777-0.155-1.447-0.214v0c-0.011-0.222-0.009-0.433 0.005-0.634v0c0.463 0.004 0.942 0.015 1.439 0.033 0.496 0.018 1.046 0.03 1.65 0.036v0c0.208 0.002 0.483 0.004 0.825 0.007 0.342 0.003 0.657-0.001 0.947-0.011z" fill="#636365" data-fill-palette-color="primary"></path><path d="M163.245 275.967v0c-0.899 0.109-1.52-0.272-1.862-1.143v0c-0.853 1.049-1.785 1.635-2.797 1.758v0c-0.693 0.084-1.307-0.054-1.845-0.415-0.53-0.355-0.839-0.902-0.928-1.641v0c-0.218-1.798 1.477-3.152 5.083-4.062v0c-0.04-0.326-0.077-0.66-0.111-1-0.034-0.34-0.075-0.704-0.122-1.09v0c-0.057-0.473-0.275-0.822-0.654-1.046-0.379-0.224-0.814-0.307-1.307-0.247v0c-0.353 0.043-0.646 0.132-0.88 0.268v0c0.038 0.313 0.01 0.641-0.083 0.984-0.1 0.35-0.256 0.649-0.469 0.898-0.206 0.255-0.482 0.403-0.828 0.445v0c-0.3 0.036-0.543-0.019-0.73-0.165-0.194-0.152-0.306-0.351-0.336-0.598v0c-0.04-0.326 0.076-0.655 0.347-0.985 0.271-0.33 0.633-0.631 1.087-0.902 0.454-0.271 0.93-0.498 1.428-0.68 0.505-0.183 0.964-0.299 1.377-0.349v0c0.499-0.061 0.977-0.027 1.431 0.1 0.449 0.135 0.828 0.366 1.138 0.693 0.31 0.327 0.497 0.757 0.562 1.291v0c0.04 0.326 0.085 0.753 0.135 1.281 0.05 0.528 0.108 1.088 0.173 1.682 0.065 0.594 0.123 1.158 0.175 1.692 0.051 0.534 0.097 0.965 0.136 1.291v0c0.053 0.44 0.27 0.636 0.649 0.59v0c0.246-0.03 0.613-0.159 1.099-0.386v0c0.061 0.06 0.107 0.132 0.138 0.216 0.03 0.077 0.055 0.149 0.076 0.214v0c-0.295 0.407-0.619 0.717-0.972 0.929-0.354 0.205-0.724 0.331-1.11 0.377zM161.317 274.275v0l-0.332-3.072c-1.233 0.312-2.063 0.682-2.49 1.113-0.422 0.423-0.598 0.921-0.529 1.493v0c0.058 0.48 0.229 0.83 0.513 1.053 0.276 0.217 0.608 0.301 0.994 0.255v0c0.246-0.03 0.516-0.117 0.809-0.261 0.293-0.144 0.638-0.337 1.035-0.581z" fill="#636365" data-fill-palette-color="primary"></path><path d="M172.685 274.114v0c-0.375 0.074-0.768 0.144-1.179 0.211-0.404 0.066-0.843 0.145-1.317 0.239v0c-0.428 0.084-0.861 0.176-1.299 0.276-0.432 0.099-0.852 0.188-1.26 0.268v0c-0.082-0.209-0.123-0.417-0.123-0.622v0c0.454-0.124 0.784-0.236 0.99-0.338 0.199-0.101 0.315-0.26 0.347-0.479 0.027-0.21-0.004-0.539-0.091-0.987v0l-0.892-4.532c-0.102-0.52-0.198-0.905-0.288-1.153-0.09-0.249-0.251-0.405-0.482-0.47-0.23-0.057-0.608-0.068-1.135-0.033v0c-0.077-0.183-0.111-0.358-0.103-0.523v0c0.57-0.228 1.11-0.475 1.619-0.739 0.507-0.271 0.993-0.551 1.455-0.84v0l0.371 0.061c0.068 0.417 0.135 0.808 0.2 1.17 0.066 0.37 0.131 0.716 0.194 1.039v0l1.066 5.421c0.102 0.52 0.206 0.889 0.31 1.108 0.105 0.219 0.268 0.337 0.49 0.355 0.222 0.018 0.557 0 1.005-0.054v0c0.078 0.19 0.119 0.397 0.122 0.622zM165.991 261.401v0c-0.076-0.388-0.003-0.745 0.22-1.069 0.223-0.324 0.529-0.525 0.918-0.601v0c0.375-0.074 0.728-0.003 1.057 0.212 0.33 0.216 0.531 0.511 0.605 0.886v0c0.069 0.349-0.004 0.695-0.217 1.038-0.213 0.343-0.527 0.555-0.941 0.636v0c-0.375 0.074-0.724 0.006-1.045-0.204-0.323-0.217-0.522-0.516-0.597-0.898z" fill="#636365" data-fill-palette-color="primary"></path><path d="M180.041 272.257v0c-0.383 0.099-0.778 0.194-1.184 0.286-0.4 0.09-0.846 0.198-1.339 0.326v0c-0.494 0.128-0.93 0.248-1.311 0.359-0.386 0.114-0.778 0.222-1.173 0.325v0c-0.094-0.204-0.147-0.409-0.159-0.614v0c0.446-0.15 0.766-0.281 0.958-0.393 0.199-0.114 0.305-0.28 0.318-0.498 0.021-0.213-0.026-0.541-0.14-0.983v0l-2.586-9.995c-0.106-0.409-0.225-0.708-0.356-0.896-0.125-0.189-0.316-0.296-0.572-0.32-0.256-0.024-0.62 0.001-1.092 0.075v0c-0.083-0.159-0.129-0.337-0.139-0.536v0c0.516-0.203 1.034-0.448 1.556-0.735 0.523-0.281 1.044-0.624 1.563-1.028v0l0.372 0.029c0.056 0.297 0.13 0.635 0.22 1.013 0.089 0.372 0.191 0.779 0.306 1.221v0l2.704 10.453c0.133 0.513 0.261 0.875 0.385 1.085 0.117 0.212 0.287 0.321 0.511 0.326 0.216 0.006 0.55-0.031 0.999-0.114v0c0.076 0.188 0.129 0.393 0.159 0.614z" fill="#636365" data-fill-palette-color="primary"></path><path d="M187.383 269.953v0c-0.364 0.117-0.746 0.232-1.146 0.347-0.394 0.112-0.821 0.242-1.281 0.39v0c-0.415 0.133-0.835 0.275-1.258 0.425-0.418 0.148-0.824 0.286-1.221 0.412v0c-0.106-0.199-0.171-0.4-0.193-0.604v0c0.437-0.175 0.752-0.326 0.944-0.45 0.186-0.123 0.282-0.295 0.289-0.516 0.002-0.212-0.066-0.535-0.206-0.97v0l-1.411-4.398c-0.162-0.505-0.302-0.875-0.42-1.112-0.118-0.237-0.296-0.374-0.533-0.41-0.235-0.03-0.612 0.003-1.131 0.098v0c-0.098-0.173-0.152-0.342-0.163-0.507v0c0.54-0.293 1.047-0.6 1.522-0.922 0.473-0.328 0.922-0.662 1.348-1.003v0l0.376 0.017c0.116 0.407 0.228 0.787 0.334 1.14 0.108 0.36 0.213 0.696 0.313 1.009v0l1.687 5.261c0.162 0.505 0.307 0.86 0.437 1.064 0.129 0.205 0.305 0.304 0.528 0.296 0.223-0.008 0.553-0.065 0.992-0.17v0c0.1 0.179 0.164 0.381 0.193 0.603zM179.259 258.102v0c-0.121-0.377-0.089-0.739 0.096-1.087 0.184-0.348 0.465-0.582 0.841-0.703v0c0.364-0.117 0.722-0.087 1.075 0.088 0.352 0.176 0.587 0.446 0.704 0.81v0c0.109 0.339 0.077 0.69-0.095 1.056-0.172 0.365-0.459 0.612-0.861 0.741v0c-0.364 0.117-0.718 0.089-1.062-0.082-0.346-0.178-0.578-0.452-0.698-0.823z" fill="#636365" data-fill-palette-color="primary"></path><path d="M195.846 266.538v0c-0.11-0.194-0.191-0.389-0.243-0.586v0c0.384-0.196 0.657-0.36 0.819-0.493 0.169-0.136 0.244-0.312 0.227-0.53-0.009-0.214-0.101-0.532-0.277-0.953v0l-1.6-3.847c-0.314-0.756-0.668-1.274-1.06-1.553-0.39-0.274-0.935-0.265-1.635 0.026v0c-0.365 0.152-0.692 0.364-0.978 0.635-0.29 0.281-0.561 0.687-0.811 1.22v0l2.067 4.971c0.203 0.489 0.378 0.831 0.524 1.025 0.146 0.194 0.326 0.278 0.542 0.254 0.215-0.024 0.531-0.104 0.946-0.241v0c0.102 0.176 0.183 0.371 0.244 0.586v0c-0.353 0.147-0.727 0.295-1.123 0.445-0.389 0.147-0.807 0.314-1.253 0.499v0c-0.403 0.167-0.8 0.34-1.191 0.517-0.385 0.175-0.77 0.342-1.154 0.502v0c-0.122-0.189-0.203-0.384-0.243-0.586v0c0.421-0.211 0.722-0.387 0.903-0.528 0.175-0.138 0.257-0.317 0.245-0.538-0.015-0.212-0.111-0.528-0.286-0.949v0l-1.774-4.265c-0.203-0.489-0.377-0.846-0.521-1.069-0.144-0.224-0.335-0.344-0.574-0.36-0.237-0.01-0.604 0.051-1.1 0.185v0c-0.112-0.164-0.18-0.328-0.205-0.493v0c1-0.67 1.881-1.382 2.643-2.135v0l0.376-0.014 0.591 1.422c0.361-0.775 0.775-1.387 1.242-1.836 0.47-0.442 0.959-0.769 1.467-0.98v0c0.836-0.348 1.579-0.37 2.228-0.066 0.646 0.313 1.162 0.934 1.549 1.863v0l1.796 4.32c0.203 0.489 0.381 0.83 0.534 1.021 0.146 0.194 0.326 0.278 0.542 0.254 0.209-0.022 0.531-0.104 0.964-0.248v0c0.102 0.176 0.183 0.371 0.244 0.585v0c-0.384 0.16-0.758 0.308-1.123 0.445-0.364 0.137-0.788 0.306-1.271 0.507v0c-0.471 0.196-0.877 0.372-1.219 0.529-0.342 0.157-0.692 0.31-1.052 0.459z" fill="#636365" data-fill-palette-color="primary"></path><path d="M208.991 266.028v0c-1.066 0.582-2.024 0.863-2.874 0.846-0.859-0.02-1.469-0.36-1.829-1.02v0c-0.283-0.518-0.335-1.048-0.156-1.588 0.176-0.532 0.438-1.11 0.785-1.735v0c-0.532 0.145-0.993 0.148-1.383 0.009-0.389-0.139-0.687-0.397-0.892-0.774v0c-0.353-0.648-0.235-1.565 0.357-2.751v0c-0.533-0.038-1.029-0.191-1.489-0.46-0.463-0.275-0.839-0.677-1.129-1.207v0c-0.363-0.665-0.504-1.33-0.422-1.993 0.085-0.657 0.339-1.27 0.762-1.838 0.418-0.564 0.945-1.02 1.582-1.367v0c0.942-0.514 1.87-0.684 2.782-0.509v0c0.365-0.872 0.863-1.479 1.493-1.824v0c0.312-0.17 0.596-0.237 0.853-0.201 0.254 0.045 0.453 0.2 0.598 0.465v0c0.145 0.265 0.176 0.519 0.095 0.762-0.084 0.252-0.247 0.444-0.489 0.576v0c-0.23 0.125-0.463 0.161-0.698 0.106-0.239-0.045-0.451-0.182-0.637-0.41v0c-0.152 0.129-0.264 0.244-0.338 0.346-0.08 0.105-0.161 0.237-0.243 0.396v0c0.689 0.297 1.228 0.801 1.617 1.513v0c0.36 0.66 0.505 1.31 0.434 1.953-0.07 0.642-0.306 1.233-0.706 1.772-0.407 0.543-0.928 0.988-1.565 1.335v0c-0.601 0.328-1.22 0.524-1.856 0.589v0c-0.142 0.467-0.12 0.872 0.066 1.213v0c0.164 0.3 0.382 0.426 0.652 0.378 0.271-0.049 0.716-0.242 1.335-0.579v0c0.277-0.151 0.605-0.334 0.985-0.549 0.385-0.218 0.667-0.375 0.843-0.471v0c1.207-0.659 2.193-0.918 2.958-0.777 0.765 0.141 1.351 0.585 1.759 1.333v0c0.321 0.589 0.461 1.189 0.42 1.8-0.041 0.611-0.226 1.204-0.553 1.78-0.328 0.576-0.759 1.109-1.294 1.6-0.544 0.488-1.152 0.915-1.823 1.281zM205.742 262.195v0c-0.352 0.895-0.365 1.643-0.037 2.244v0c0.231 0.424 0.546 0.699 0.944 0.826 0.398 0.127 0.834 0.141 1.308 0.044 0.477-0.107 0.944-0.286 1.403-0.537v0c0.406-0.222 0.801-0.514 1.185-0.875 0.38-0.368 0.643-0.79 0.788-1.267 0.145-0.477 0.065-0.995-0.24-1.554v0c-0.276-0.506-0.649-0.769-1.118-0.788-0.472-0.025-1.191 0.226-2.158 0.752v0c-0.23 0.125-0.511 0.282-0.843 0.472-0.338 0.192-0.711 0.399-1.117 0.621v0c-0.041 0.022-0.08 0.043-0.115 0.062zM205.188 257.775v0c0.53-0.289 0.819-0.726 0.867-1.31 0.051-0.578-0.13-1.247-0.545-2.007v0c-0.421-0.771-0.898-1.302-1.43-1.593-0.533-0.29-1.076-0.284-1.629 0.018v0c-0.518 0.283-0.805 0.71-0.86 1.283-0.055 0.572 0.125 1.238 0.54 1.998v0c0.421 0.771 0.902 1.304 1.444 1.596 0.545 0.299 1.083 0.304 1.613 0.015z" fill="#636365" data-fill-palette-color="primary"></path><path d="M223.273 251.076v0c-0.011 0.008-0.195 0.132-0.551 0.371-0.362 0.244-0.799 0.493-1.312 0.748v0c-0.42 0.211-0.793 0.417-1.12 0.619-0.322 0.197-0.515 0.319-0.58 0.367v0c-0.69-0.908-1.565-1.98-2.624-3.215v0c0.084-0.079 0.171-0.152 0.263-0.22 0.092-0.068 0.178-0.132 0.258-0.192v0c0.93 0.814 1.838 1.305 2.724 1.475 0.882 0.164 1.724-0.052 2.527-0.648v0c0.717-0.532 1.155-1.162 1.316-1.891 0.161-0.729 0.005-1.411-0.467-2.047v0c-0.36-0.485-0.78-0.792-1.259-0.92-0.476-0.123-0.993-0.145-1.552-0.064-0.564 0.084-1.142 0.2-1.734 0.347v0c-0.7 0.16-1.388 0.291-2.065 0.392-0.671 0.097-1.313 0.055-1.924-0.126-0.611-0.182-1.156-0.596-1.636-1.242v0c-0.516-0.695-0.785-1.418-0.808-2.17-0.022-0.761 0.162-1.487 0.552-2.177 0.395-0.694 0.946-1.303 1.652-1.827v0c0.221-0.164 0.458-0.323 0.711-0.477 0.253-0.154 0.524-0.301 0.813-0.441v0c0.35-0.193 0.615-0.348 0.795-0.465 0.18-0.117 0.298-0.196 0.352-0.236v0c0.032-0.024 0.092-0.073 0.18-0.146 0.082-0.069 0.146-0.129 0.192-0.18v0c0.381 0.469 0.775 0.954 1.18 1.455 0.405 0.501 0.842 1.017 1.31 1.546v0c-0.197 0.196-0.372 0.343-0.525 0.441v0c-0.965-0.771-1.792-1.227-2.481-1.368v0c-0.692-0.155-1.385 0.025-2.08 0.541v0c-0.609 0.452-1.009 0.999-1.199 1.643-0.187 0.648-0.043 1.293 0.433 1.934v0c0.252 0.339 0.557 0.581 0.914 0.725 0.358 0.144 0.812 0.199 1.364 0.166 0.557-0.037 1.271-0.162 2.141-0.374v0c0.473-0.117 0.965-0.219 1.477-0.306 0.512-0.087 1.017-0.116 1.516-0.085 0.499 0.031 0.981 0.162 1.445 0.394 0.46 0.226 0.881 0.595 1.26 1.107v0c0.556 0.749 0.839 1.524 0.85 2.327 0.016 0.798-0.181 1.563-0.591 2.293-0.406 0.736-0.978 1.378-1.717 1.926z" fill="#636365" data-fill-palette-color="primary"></path><path d="M233.67 242.346v0c-0.738 0.674-1.531 1.104-2.38 1.289-0.839 0.186-1.67 0.136-2.493-0.147-0.818-0.288-1.56-0.796-2.226-1.525v0c-0.724-0.792-1.197-1.628-1.419-2.506-0.212-0.878-0.178-1.746 0.103-2.603 0.28-0.847 0.796-1.614 1.549-2.302v0c0.738-0.674 1.529-1.102 2.372-1.283 0.843-0.171 1.677-0.115 2.5 0.169 0.823 0.293 1.562 0.799 2.218 1.517v0c0.679 0.743 1.132 1.556 1.358 2.44 0.217 0.883 0.199 1.754-0.053 2.612-0.257 0.862-0.767 1.642-1.529 2.339zM228.117 240.209v0c0.946 1.035 1.866 1.698 2.76 1.99 0.889 0.296 1.675 0.132 2.359-0.493v0c0.649-0.593 0.881-1.333 0.697-2.219-0.179-0.891-0.707-1.817-1.585-2.778v0c-0.937-1.025-1.857-1.683-2.76-1.975-0.898-0.297-1.677-0.144-2.336 0.458v0c-0.649 0.593-0.893 1.33-0.733 2.21 0.16 0.881 0.693 1.816 1.598 2.807z" fill="#636365" data-fill-palette-color="primary"></path><path d="M242.848 232.779v0c-0.269 0.291-0.549 0.584-0.841 0.88-0.288 0.291-0.604 0.624-0.951 0.999v0c-0.346 0.374-0.649 0.712-0.907 1.011-0.263 0.305-0.534 0.607-0.812 0.908v0c-0.19-0.121-0.345-0.264-0.466-0.43v0c0.294-0.368 0.492-0.651 0.594-0.85 0.106-0.204 0.105-0.401-0.002-0.591-0.098-0.191-0.314-0.441-0.649-0.75v0l-7.582-7.008c-0.31-0.287-0.572-0.474-0.784-0.561-0.208-0.092-0.426-0.078-0.654 0.04-0.228 0.118-0.521 0.336-0.878 0.655v0c-0.155-0.089-0.291-0.214-0.407-0.376v0c0.324-0.45 0.628-0.936 0.911-1.46 0.288-0.519 0.541-1.089 0.759-1.711v0l0.328-0.176c0.208 0.22 0.453 0.464 0.734 0.733 0.276 0.264 0.582 0.552 0.916 0.861v0l7.93 7.329c0.389 0.36 0.693 0.595 0.91 0.705 0.213 0.115 0.415 0.114 0.606-0.003 0.185-0.112 0.445-0.324 0.779-0.636v0c0.166 0.117 0.321 0.26 0.466 0.431z" fill="#636365" data-fill-palette-color="primary"></path><path d="M247.281 227.654v0c-0.55 0.702-1.185 1.083-1.904 1.142-0.719 0.059-1.475-0.222-2.267-0.842v0l-3.272-2.563c-0.423-0.331-0.751-0.559-0.986-0.683-0.235-0.124-0.461-0.135-0.678-0.032-0.222 0.099-0.515 0.325-0.878 0.68v0c-0.183-0.049-0.318-0.155-0.404-0.316v0c0.301-0.514 0.579-1.017 0.835-1.507 0.261-0.486 0.506-0.984 0.735-1.494v0l0.304-0.159c0.324 0.271 0.635 0.527 0.932 0.769 0.292 0.237 0.567 0.457 0.825 0.659v0l3.28 2.569c0.65 0.509 1.212 0.787 1.686 0.834 0.474 0.047 0.939-0.219 1.394-0.8v0c0.256-0.327 0.425-0.69 0.505-1.087 0.075-0.401 0.075-0.841-0.002-1.319v0l-3.764-2.947c-0.423-0.331-0.751-0.559-0.986-0.683-0.235-0.124-0.461-0.135-0.678-0.032-0.218 0.093-0.511 0.32-0.877 0.68v0c-0.162-0.076-0.297-0.181-0.404-0.316v0c0.301-0.514 0.579-1.017 0.834-1.506 0.261-0.486 0.513-0.992 0.755-1.519v0l0.297-0.15c0.324 0.271 0.635 0.527 0.932 0.768 0.292 0.237 0.567 0.457 0.825 0.659v0l4.2 3.289c0.327 0.256 0.588 0.43 0.78 0.521 0.192 0.082 0.393 0.065 0.603-0.052 0.209-0.126 0.496-0.378 0.861-0.757v0c0.14 0.093 0.275 0.198 0.404 0.317v0c-0.322 0.498-0.614 0.985-0.876 1.461-0.268 0.472-0.511 0.946-0.73 1.422v0l-0.31 0.167-1.157-0.856c0.152 1.568-0.119 2.796-0.814 3.683z" fill="#636365" data-fill-palette-color="primary"></path><path d="M255.244 216.661v0c-0.447 0.686-0.968 1.123-1.563 1.312-0.59 0.192-1.196 0.085-1.821-0.321v0c-1.012-0.659-1.985-1.305-2.918-1.936-0.933-0.632-1.832-1.237-2.696-1.816v0l-0.851 1.307c-0.196-0.08-0.354-0.182-0.472-0.308v0c0.26-1.456 0.031-2.826-0.686-4.11v0c0.059-0.09 0.122-0.181 0.189-0.272 0.064-0.086 0.124-0.159 0.18-0.22v0c0.291 0.205 0.603 0.421 0.936 0.646 0.328 0.222 0.671 0.457 1.029 0.706v0l1.708-2.622c0.284 0.129 0.551 0.303 0.801 0.521v0l-1.708 2.623c0.789 0.546 1.629 1.113 2.519 1.701 0.885 0.584 1.777 1.169 2.676 1.754v0c0.933 0.608 1.715 0.428 2.345-0.538v0c0.271-0.416 0.412-0.872 0.423-1.37v0c0.21-0.015 0.424 0.032 0.641 0.141v0c0.069 1.013-0.175 1.947-0.732 2.802z" fill="#636365" data-fill-palette-color="primary"></path><path d="M260.274 207.734v0c-0.188 0.333-0.391 0.677-0.607 1.032-0.213 0.349-0.439 0.734-0.677 1.155v0c-0.215 0.379-0.427 0.768-0.637 1.165-0.206 0.392-0.412 0.769-0.617 1.131v0c-0.212-0.074-0.396-0.178-0.552-0.312v0c0.202-0.425 0.332-0.749 0.388-0.972 0.053-0.217 0.008-0.408-0.137-0.574-0.142-0.158-0.412-0.349-0.809-0.574v0l-4.019-2.276c-0.461-0.261-0.816-0.439-1.063-0.532-0.248-0.094-0.471-0.074-0.67 0.06-0.193 0.137-0.448 0.417-0.764 0.839v0c-0.189-0.061-0.344-0.148-0.465-0.263v0c0.198-0.582 0.363-1.151 0.494-1.709 0.125-0.561 0.229-1.112 0.311-1.651v0l0.287-0.242c0.361 0.22 0.701 0.424 1.019 0.611 0.324 0.191 0.628 0.367 0.914 0.529v0l4.808 2.722c0.461 0.261 0.809 0.423 1.042 0.487 0.234 0.063 0.43 0.016 0.589-0.141 0.158-0.157 0.363-0.423 0.614-0.798v0c0.195 0.064 0.379 0.168 0.551 0.313zM246.267 204.532v0c-0.344-0.195-0.567-0.483-0.667-0.863-0.101-0.381-0.053-0.743 0.141-1.088v0c0.188-0.333 0.472-0.554 0.85-0.663 0.378-0.11 0.734-0.07 1.067 0.118v0c0.309 0.175 0.525 0.455 0.646 0.84 0.121 0.385 0.078 0.761-0.131 1.128v0c-0.188 0.333-0.467 0.553-0.836 0.66-0.375 0.104-0.732 0.06-1.07-0.132z" fill="#636365" data-fill-palette-color="primary"></path><path d="M263.897 200.729v0c-0.423 0.906-0.992 1.606-1.705 2.102-0.704 0.493-1.491 0.766-2.36 0.819-0.866 0.047-1.746-0.139-2.639-0.557v0c-0.972-0.455-1.729-1.045-2.271-1.772-0.532-0.73-0.833-1.545-0.902-2.443-0.065-0.89 0.118-1.796 0.55-2.72v0c0.423-0.906 0.99-1.603 1.701-2.094 0.714-0.481 1.505-0.748 2.374-0.8 0.872-0.044 1.749 0.14 2.63 0.552v0c0.912 0.426 1.641 1.004 2.188 1.734 0.539 0.733 0.856 1.544 0.951 2.433 0.093 0.895-0.08 1.81-0.517 2.746zM257.949 200.881v0c1.27 0.594 2.374 0.854 3.312 0.782 0.935-0.067 1.598-0.519 1.99-1.358v0c0.372-0.796 0.304-1.569-0.205-2.318-0.506-0.755-1.349-1.408-2.528-1.959v0c-1.258-0.588-2.36-0.844-3.307-0.768-0.944 0.07-1.604 0.509-1.982 1.317v0c-0.372 0.796-0.316 1.57 0.17 2.323 0.485 0.753 1.335 1.413 2.55 1.981z" fill="#636365" data-fill-palette-color="primary"></path><path d="M269.083 186.875v0c-0.218-0.046-0.418-0.114-0.6-0.205v0c0.107-0.417 0.164-0.731 0.172-0.94 0.01-0.216-0.073-0.39-0.247-0.521-0.167-0.135-0.466-0.276-0.898-0.423v0l-3.943-1.345c-0.775-0.264-1.397-0.342-1.866-0.233-0.463 0.111-0.817 0.526-1.062 1.243v0c-0.128 0.375-0.185 0.759-0.171 1.154 0.018 0.403 0.144 0.875 0.379 1.416v0l5.095 1.738c0.502 0.171 0.873 0.266 1.115 0.285 0.242 0.019 0.425-0.061 0.549-0.238 0.124-0.177 0.273-0.467 0.445-0.869v0c0.199 0.04 0.399 0.108 0.6 0.205v0c-0.123 0.362-0.26 0.741-0.409 1.136-0.147 0.389-0.298 0.813-0.454 1.27v0c-0.141 0.413-0.274 0.824-0.4 1.235-0.124 0.404-0.253 0.803-0.387 1.197v0c-0.223-0.033-0.423-0.102-0.6-0.205v0c0.12-0.455 0.187-0.797 0.201-1.026 0.012-0.223-0.068-0.403-0.241-0.54-0.169-0.128-0.469-0.266-0.901-0.413v0l-4.372-1.492c-0.502-0.171-0.884-0.277-1.146-0.317-0.263-0.04-0.48 0.024-0.651 0.193-0.165 0.171-0.361 0.486-0.589 0.947v0c-0.197-0.025-0.365-0.082-0.505-0.172v0c0.159-1.193 0.208-2.325 0.148-3.394v0l0.238-0.291 1.457 0.497c-0.342-0.783-0.527-1.498-0.554-2.146-0.021-0.645 0.057-1.228 0.235-1.748v0c0.292-0.857 0.767-1.429 1.425-1.715 0.662-0.278 1.469-0.254 2.421 0.071v0l4.429 1.511c0.502 0.171 0.874 0.263 1.118 0.275 0.242 0.019 0.425-0.061 0.549-0.238 0.122-0.171 0.273-0.467 0.452-0.888v0c0.199 0.04 0.399 0.108 0.6 0.205v0c-0.134 0.394-0.271 0.772-0.409 1.136-0.138 0.364-0.292 0.794-0.461 1.289v0c-0.165 0.483-0.301 0.904-0.41 1.264-0.109 0.36-0.226 0.724-0.352 1.092z" fill="#636365" data-fill-palette-color="primary"></path></g></svg></g></svg></g></svg></g></svg></g><defs></defs></svg><rect width="279.72" height="279.72" fill="none" stroke="none" visibility="hidden"></rect></g></svg></g></svg>